<?xml version="1.0" encoding="UTF-8" standalone="no"?><!DOCTYPE svg PUBLIC "-//W3C//DTD SVG 1.1//EN" "http://www.w3.org/Graphics/SVG/1.1/DTD/svg11.dtd"><svg width="100%" height="100%" viewBox="0 0 909 909" version="1.1" xmlns="http://www.w3.org/2000/svg" xmlns:xlink="http://www.w3.org/1999/xlink" xml:space="preserve" xmlns:serif="http://www.serif.com/" style="fill-rule:evenodd;clip-rule:evenodd;stroke-linejoin:round;stroke-miterlimit:2;"><g><path d="M477.69,0l430.658,0l0,430.658l-262.03,0l-84.314,-84.314l-84.314,-77.735l-0,-268.609Zm11.912,11.912l-0,251.477l80.476,74.197c0.119,0.11 0.235,0.221 0.349,0.335c-0,0 80.825,80.825 80.825,80.825l245.184,0l-0,-406.834l-406.834,0Z"/><path d="M477.69,0l430.658,0l0,430.658l-262.03,0l-84.314,-84.314l-84.314,-77.735l-0,-268.609Z"/><path d="M430.658,-0l0,430.658l-430.658,0l0,-269.03l162.049,-161.628l268.609,-0Zm-11.912,11.912l-251.771,0l-155.063,154.659l0,252.175l406.834,0l0,-406.834Z"/><path d="M430.658,0l0,430.658l-430.658,0l0,-269.03l162.049,-161.628l268.609,0Z"/><path d="M-0,908.844l-0,-430.658l430.658,0l0,269.03l-162.049,161.628l-268.609,0Zm11.912,-11.912c0,0 251.772,0 251.772,0l155.062,-154.659l0,-252.175l-406.834,0l0,406.834Z"/><path d="M-0,908.844l-0,-430.658l430.658,0l0,269.03l-162.049,161.628l-268.609,0Z"/><path d="M908.348,908.844l-430.658,0l-0,-430.658l269.03,0l161.628,162.049l0,268.609Zm-11.912,-11.912l-0,-251.771l-154.659,-155.063l-252.175,0l-0,406.834l406.834,0Z"/><path d="M908.348,908.844l-430.658,0l-0,-430.658l269.03,0l161.628,162.049l0,268.609Z"/></g></svg>